<mxfile host="app.diagrams.net" modified="2023-12-27T16:14:46.695Z" agent="Mozilla/5.0 (Windows NT 10.0; Win64; x64) AppleWebKit/537.36 (KHTML, like Gecko) Chrome/120.0.0.0 Safari/537.36" version="22.1.14" etag="-F0SoM2a9kHQlI1J7zUr" type="github">
  <diagram name="Page-1" id="lcnAYwhOwTogxQ4gWdZP">
    <mxGraphModel>
      <root>
        <mxCell id="0" />
        <mxCell id="1" parent="0" />
      </root>
    </mxGraphModel>
  </diagram>
</mxfile>
